<?xml version="1.0" encoding="UTF-8" standalone="no"?>
<!DOCTYPE svg PUBLIC "-//W3C//DTD SVG 1.1//EN"
 "http://www.w3.org/Graphics/SVG/1.1/DTD/svg11.dtd">
<!-- Generated by graphviz version 2.43.0 (0)
 -->
<!-- Title: architecture Pages: 1 -->
<svg width="1225pt" height="238pt"
 viewBox="0.00 0.00 1225.00 238.00" xmlns="http://www.w3.org/2000/svg" xmlns:xlink="http://www.w3.org/1999/xlink">
<g id="graph0" class="graph" transform="scale(1 1) rotate(0) translate(4 234)">
<title>architecture</title>
<polygon fill="#0d1117" stroke="transparent" points="-4,4 -4,-234 1221,-234 1221,4 -4,4"/>
<text text-anchor="middle" x="608.5" y="-214.8" font-family="Helvetica,sans-Serif" font-size="14.00" fill="#c9d1d9">smol&#45;jobscout — Architecture</text>
<g id="clust1" class="cluster">
<title>cluster_entry</title>
<path fill="#0d1117" stroke="#30363d" d="M142,-19C142,-19 214,-19 214,-19 220,-19 226,-25 226,-31 226,-31 226,-136 226,-136 226,-142 220,-148 214,-148 214,-148 142,-148 142,-148 136,-148 130,-142 130,-136 130,-136 130,-31 130,-31 130,-25 136,-19 142,-19"/>
<text text-anchor="middle" x="178" y="-132.8" font-family="Helvetica,sans-Serif" font-size="14.00" fill="#58a6ff">Entry points</text>
</g>
<g id="clust2" class="cluster">
<title>cluster_core</title>
<path fill="#0d1117" stroke="#30363d" d="M342,-60C342,-60 699.5,-60 699.5,-60 705.5,-60 711.5,-66 711.5,-72 711.5,-72 711.5,-143 711.5,-143 711.5,-149 705.5,-155 699.5,-155 699.5,-155 342,-155 342,-155 336,-155 330,-149 330,-143 330,-143 330,-72 330,-72 330,-66 336,-60 342,-60"/>
<text text-anchor="middle" x="520.75" y="-139.8" font-family="Helvetica,sans-Serif" font-size="14.00" fill="#58a6ff">Agent core</text>
</g>
<g id="clust3" class="cluster">
<title>cluster_tools</title>
<path fill="#0d1117" stroke="#30363d" d="M776,-8C776,-8 871,-8 871,-8 877,-8 883,-14 883,-20 883,-20 883,-187 883,-187 883,-193 877,-199 871,-199 871,-199 776,-199 776,-199 770,-199 764,-193 764,-187 764,-187 764,-20 764,-20 764,-14 770,-8 776,-8"/>
<text text-anchor="middle" x="823.5" y="-183.8" font-family="Helvetica,sans-Serif" font-size="14.00" fill="#58a6ff">Tools (tools.py)</text>
</g>
<!-- cli -->
<g id="node1" class="node">
<title>cli</title>
<path fill="#1f6feb" stroke="#30363d" stroke-width="1.2" d="M204.5,-117C204.5,-117 151.5,-117 151.5,-117 145.5,-117 139.5,-111 139.5,-105 139.5,-105 139.5,-93 139.5,-93 139.5,-87 145.5,-81 151.5,-81 151.5,-81 204.5,-81 204.5,-81 210.5,-81 216.5,-87 216.5,-93 216.5,-93 216.5,-105 216.5,-105 216.5,-111 210.5,-117 204.5,-117"/>
<text text-anchor="middle" x="178" y="-102.2" font-family="Helvetica,sans-Serif" font-size="11.00" fill="#e6edf3">jobscout CLI</text>
<text text-anchor="middle" x="178" y="-90.2" font-family="Helvetica,sans-Serif" font-size="11.00" fill="#e6edf3">(cli.py)</text>
</g>
<!-- agent -->
<g id="node4" class="node">
<title>agent</title>
<path fill="#8957e5" stroke="#30363d" stroke-width="1.2" d="M451,-124C451,-124 350,-124 350,-124 344,-124 338,-118 338,-112 338,-112 338,-80 338,-80 338,-74 344,-68 350,-68 350,-68 451,-68 451,-68 457,-68 463,-74 463,-80 463,-80 463,-112 463,-112 463,-118 457,-124 451,-124"/>
<text text-anchor="middle" x="400.5" y="-111.2" font-family="Helvetica,sans-Serif" font-size="11.00" fill="#e6edf3">CodeAgent</text>
<text text-anchor="middle" x="400.5" y="-99.2" font-family="Helvetica,sans-Serif" font-size="11.00" fill="#e6edf3">(agent.py)</text>
<text text-anchor="middle" x="400.5" y="-87.2" font-family="Helvetica,sans-Serif" font-size="11.00" fill="#e6edf3">add_base_tools=False</text>
<text text-anchor="middle" x="400.5" y="-75.2" font-family="Helvetica,sans-Serif" font-size="11.00" fill="#e6edf3">executor_type=local</text>
</g>
<!-- cli&#45;&gt;agent -->
<g id="edge3" class="edge">
<title>cli&#45;&gt;agent</title>
<path fill="none" stroke="#8b949e" d="M216.65,-98.49C247.01,-98.07 290.59,-97.48 327.58,-96.98"/>
<polygon fill="#8b949e" stroke="#8b949e" points="327.88,-100.47 337.83,-96.84 327.78,-93.48 327.88,-100.47"/>
</g>
<!-- ui -->
<g id="node2" class="node">
<title>ui</title>
<path fill="#1f6feb" stroke="#30363d" stroke-width="1.2" d="M206,-63C206,-63 150,-63 150,-63 144,-63 138,-57 138,-51 138,-51 138,-39 138,-39 138,-33 144,-27 150,-27 150,-27 206,-27 206,-27 212,-27 218,-33 218,-39 218,-39 218,-51 218,-51 218,-57 212,-63 206,-63"/>
<text text-anchor="middle" x="178" y="-48.2" font-family="Helvetica,sans-Serif" font-size="11.00" fill="#e6edf3">Gradio UI</text>
<text text-anchor="middle" x="178" y="-36.2" font-family="Helvetica,sans-Serif" font-size="11.00" fill="#e6edf3">(ui.py, :7860)</text>
</g>
<!-- ui&#45;&gt;agent -->
<g id="edge4" class="edge">
<title>ui&#45;&gt;agent</title>
<path fill="none" stroke="#8b949e" d="M218.17,-54.06C248.48,-61.07 291.3,-70.97 327.72,-79.4"/>
<polygon fill="#8b949e" stroke="#8b949e" points="327.27,-82.89 337.8,-81.73 328.85,-76.07 327.27,-82.89"/>
</g>
<!-- user -->
<g id="node3" class="node">
<title>user</title>
<ellipse fill="#238636" stroke="#30363d" stroke-width="1.2" cx="27" cy="-71" rx="27" ry="18"/>
<text text-anchor="middle" x="27" y="-68.2" font-family="Helvetica,sans-Serif" font-size="11.00" fill="#e6edf3">User</text>
</g>
<!-- user&#45;&gt;cli -->
<g id="edge1" class="edge">
<title>user&#45;&gt;cli</title>
<path fill="none" stroke="#8b949e" d="M53.28,-75.75C74,-79.64 103.92,-85.27 129.15,-90.01"/>
<polygon fill="#8b949e" stroke="#8b949e" points="128.8,-93.5 139.27,-91.91 130.09,-86.62 128.8,-93.5"/>
<text text-anchor="middle" x="90" y="-87.8" font-family="Helvetica,sans-Serif" font-size="9.00" fill="#8b949e">question</text>
</g>
<!-- user&#45;&gt;ui -->
<g id="edge2" class="edge">
<title>user&#45;&gt;ui</title>
<path fill="none" stroke="#8b949e" d="M52.6,-65.08C58.91,-63.65 65.69,-62.2 72,-61 90.17,-57.55 110.23,-54.35 127.9,-51.73"/>
<polygon fill="#8b949e" stroke="#8b949e" points="128.6,-55.17 137.99,-50.26 127.59,-48.24 128.6,-55.17"/>
<text text-anchor="middle" x="90" y="-63.8" font-family="Helvetica,sans-Serif" font-size="9.00" fill="#8b949e">chat</text>
</g>
<!-- exec -->
<g id="node5" class="node">
<title>exec</title>
<path fill="#6e40c9" stroke="#30363d" stroke-width="1.2" d="M691.5,-118C691.5,-118 608.5,-118 608.5,-118 602.5,-118 596.5,-112 596.5,-106 596.5,-106 596.5,-86 596.5,-86 596.5,-80 602.5,-74 608.5,-74 608.5,-74 691.5,-74 691.5,-74 697.5,-74 703.5,-80 703.5,-86 703.5,-86 703.5,-106 703.5,-106 703.5,-112 697.5,-118 691.5,-118"/>
<text text-anchor="middle" x="650" y="-105.2" font-family="Helvetica,sans-Serif" font-size="11.00" fill="#e6edf3">Local Python</text>
<text text-anchor="middle" x="650" y="-93.2" font-family="Helvetica,sans-Serif" font-size="11.00" fill="#e6edf3">executor</text>
<text text-anchor="middle" x="650" y="-81.2" font-family="Helvetica,sans-Serif" font-size="11.00" fill="#e6edf3">(LLM&#45;written code)</text>
</g>
<!-- agent&#45;&gt;exec -->
<g id="edge8" class="edge">
<title>agent&#45;&gt;exec</title>
<path fill="none" stroke="#8b949e" d="M463.32,-96C500.75,-96 548.36,-96 586,-96"/>
<polygon fill="#8b949e" stroke="#8b949e" points="586.34,-99.5 596.34,-96 586.34,-92.5 586.34,-99.5"/>
<text text-anchor="middle" x="514" y="-98.8" font-family="Helvetica,sans-Serif" font-size="9.00" fill="#8b949e">emit Python</text>
</g>
<!-- model -->
<g id="node7" class="node">
<title>model</title>
<path fill="#bb8009" stroke="#30363d" stroke-width="1.2" d="M723,-207C723,-207 577,-207 577,-207 571,-207 565,-201 565,-195 565,-195 565,-175 565,-175 565,-169 571,-163 577,-163 577,-163 723,-163 723,-163 729,-163 735,-169 735,-175 735,-175 735,-195 735,-195 735,-201 729,-207 723,-207"/>
<text text-anchor="middle" x="650" y="-194.2" font-family="Helvetica,sans-Serif" font-size="11.00" fill="#e6edf3">Ollama model</text>
<text text-anchor="middle" x="650" y="-182.2" font-family="Helvetica,sans-Serif" font-size="11.00" fill="#e6edf3">via LiteLLM</text>
<text text-anchor="middle" x="650" y="-170.2" font-family="Helvetica,sans-Serif" font-size="11.00" fill="#e6edf3">ollama_chat/qwen2.5&#45;coder:14b</text>
</g>
<!-- agent&#45;&gt;model -->
<g id="edge7" class="edge">
<title>agent&#45;&gt;model</title>
<path fill="none" stroke="#8b949e" d="M472.73,-124.65C501.26,-135.81 534.53,-148.43 565,-159 565.59,-159.2 566.17,-159.41 566.77,-159.61"/>
<polygon fill="#8b949e" stroke="#8b949e" points="473.83,-121.32 463.25,-120.93 471.28,-127.84 473.83,-121.32"/>
<polygon fill="#8b949e" stroke="#8b949e" points="565.91,-163.02 576.5,-162.9 568.15,-156.38 565.91,-163.02"/>
<text text-anchor="middle" x="514" y="-153.8" font-family="Helvetica,sans-Serif" font-size="9.00" fill="#8b949e">chat completion</text>
</g>
<!-- obs -->
<g id="node14" class="node">
<title>obs</title>
<path fill="#6e7681" stroke="#30363d" stroke-width="1.2" d="M699,-52C699,-52 601,-52 601,-52 595,-52 589,-46 589,-40 589,-40 589,-28 589,-28 589,-22 595,-16 601,-16 601,-16 699,-16 699,-16 705,-16 711,-22 711,-28 711,-28 711,-40 711,-40 711,-46 705,-52 699,-52"/>
<text text-anchor="middle" x="650" y="-37.2" font-family="Helvetica,sans-Serif" font-size="11.00" fill="#e6edf3">obs.py</text>
<text text-anchor="middle" x="650" y="-25.2" font-family="Helvetica,sans-Serif" font-size="11.00" fill="#e6edf3">logging + Prometheus</text>
</g>
<!-- agent&#45;&gt;obs -->
<g id="edge16" class="edge">
<title>agent&#45;&gt;obs</title>
<path fill="none" stroke="#8b949e" stroke-dasharray="1,5" d="M463.32,-80.51C498.39,-71.73 542.41,-60.7 578.78,-51.59"/>
<polygon fill="#8b949e" stroke="#8b949e" points="579.98,-54.9 588.83,-49.07 578.27,-48.11 579.98,-54.9"/>
<text text-anchor="middle" x="514" y="-77.8" font-family="Helvetica,sans-Serif" font-size="9.00" fill="#8b949e">per&#45;step metrics</text>
</g>
<!-- qj -->
<g id="node8" class="node">
<title>qj</title>
<path fill="#0969da" stroke="#30363d" stroke-width="1.2" d="M846,-168C846,-168 801,-168 801,-168 795,-168 789,-162 789,-156 789,-156 789,-144 789,-144 789,-138 795,-132 801,-132 801,-132 846,-132 846,-132 852,-132 858,-138 858,-144 858,-144 858,-156 858,-156 858,-162 852,-168 846,-168"/>
<text text-anchor="middle" x="823.5" y="-147.2" font-family="Helvetica,sans-Serif" font-size="11.00" fill="#e6edf3">query_jobs</text>
</g>
<!-- exec&#45;&gt;qj -->
<g id="edge9" class="edge">
<title>exec&#45;&gt;qj</title>
<path fill="none" stroke="#8b949e" d="M703.86,-112.64C728.03,-120.25 756.32,-129.16 779.21,-136.37"/>
<polygon fill="#8b949e" stroke="#8b949e" points="778.4,-139.78 788.99,-139.45 780.5,-133.11 778.4,-139.78"/>
</g>
<!-- gj -->
<g id="node9" class="node">
<title>gj</title>
<path fill="#0969da" stroke="#30363d" stroke-width="1.2" d="M838.5,-114C838.5,-114 808.5,-114 808.5,-114 802.5,-114 796.5,-108 796.5,-102 796.5,-102 796.5,-90 796.5,-90 796.5,-84 802.5,-78 808.5,-78 808.5,-78 838.5,-78 838.5,-78 844.5,-78 850.5,-84 850.5,-90 850.5,-90 850.5,-102 850.5,-102 850.5,-108 844.5,-114 838.5,-114"/>
<text text-anchor="middle" x="823.5" y="-93.2" font-family="Helvetica,sans-Serif" font-size="11.00" fill="#e6edf3">get_job</text>
</g>
<!-- exec&#45;&gt;gj -->
<g id="edge10" class="edge">
<title>exec&#45;&gt;gj</title>
<path fill="none" stroke="#8b949e" d="M703.86,-96C730.6,-96 762.39,-96 786.32,-96"/>
<polygon fill="#8b949e" stroke="#8b949e" points="786.39,-99.5 796.39,-96 786.39,-92.5 786.39,-99.5"/>
</g>
<!-- web -->
<g id="node10" class="node">
<title>web</title>
<path fill="#373e47" stroke="#30363d" stroke-width="1.2" d="M863,-60C863,-60 784,-60 784,-60 778,-60 772,-54 772,-48 772,-48 772,-28 772,-28 772,-22 778,-16 784,-16 784,-16 863,-16 863,-16 869,-16 875,-22 875,-28 875,-28 875,-48 875,-48 875,-54 869,-60 863,-60"/>
<text text-anchor="middle" x="823.5" y="-47.2" font-family="Helvetica,sans-Serif" font-size="11.00" fill="#e6edf3">WebSearchTool</text>
<text text-anchor="middle" x="823.5" y="-35.2" font-family="Helvetica,sans-Serif" font-size="11.00" fill="#e6edf3">VisitWebpageTool</text>
<text text-anchor="middle" x="823.5" y="-23.2" font-family="Helvetica,sans-Serif" font-size="11.00" fill="#e6edf3">(import&#45;guarded)</text>
</g>
<!-- exec&#45;&gt;web -->
<g id="edge11" class="edge">
<title>exec&#45;&gt;web</title>
<path fill="none" stroke="#8b949e" d="M703.86,-78.12C722.38,-71.86 743.31,-64.78 762.39,-58.33"/>
<polygon fill="#8b949e" stroke="#8b949e" points="763.52,-61.64 771.87,-55.12 761.28,-55.01 763.52,-61.64"/>
</g>
<!-- cfg -->
<g id="node6" class="node">
<title>cfg</title>
<path fill="#9e6a03" stroke="#30363d" stroke-width="1.2" d="M218,-205C218,-205 138,-205 138,-205 132,-205 126,-199 126,-193 126,-193 126,-173 126,-173 126,-167 132,-161 138,-161 138,-161 218,-161 218,-161 224,-161 230,-167 230,-173 230,-173 230,-193 230,-193 230,-199 224,-205 218,-205"/>
<text text-anchor="middle" x="178" y="-192.2" font-family="Helvetica,sans-Serif" font-size="11.00" fill="#e6edf3">Settings</text>
<text text-anchor="middle" x="178" y="-180.2" font-family="Helvetica,sans-Serif" font-size="11.00" fill="#e6edf3">(config.py)</text>
<text text-anchor="middle" x="178" y="-168.2" font-family="Helvetica,sans-Serif" font-size="11.00" fill="#e6edf3">config.yaml + .env</text>
</g>
<!-- cfg&#45;&gt;agent -->
<g id="edge5" class="edge">
<title>cfg&#45;&gt;agent</title>
<path fill="none" stroke="#8b949e" stroke-dasharray="5,2" d="M230.14,-162.82C259.32,-151.31 296.34,-136.7 328.33,-124.08"/>
<polygon fill="#8b949e" stroke="#8b949e" points="329.62,-127.33 337.64,-120.41 327.05,-120.82 329.62,-127.33"/>
<text text-anchor="middle" x="284" y="-156.8" font-family="Helvetica,sans-Serif" font-size="9.00" fill="#8b949e">validated settings</text>
</g>
<!-- cfg&#45;&gt;model -->
<g id="edge6" class="edge">
<title>cfg&#45;&gt;model</title>
<path fill="none" stroke="#8b949e" stroke-dasharray="5,2" d="M230.19,-183.22C307.86,-183.55 456.74,-184.18 554.45,-184.6"/>
<polygon fill="#8b949e" stroke="#8b949e" points="554.62,-188.1 564.63,-184.64 554.65,-181.1 554.62,-188.1"/>
</g>
<!-- data -->
<g id="node11" class="node">
<title>data</title>
<path fill="#1a7f37" stroke="#30363d" stroke-width="1.2" d="M1074,-145C1074,-145 924,-145 924,-145 918,-145 912,-139 912,-133 912,-133 912,-113 912,-113 912,-107 918,-101 924,-101 924,-101 1074,-101 1074,-101 1080,-101 1086,-107 1086,-113 1086,-113 1086,-133 1086,-133 1086,-139 1080,-145 1074,-145"/>
<text text-anchor="middle" x="999" y="-132.2" font-family="Helvetica,sans-Serif" font-size="11.00" fill="#e6edf3">Data layer (data.py)</text>
<text text-anchor="middle" x="999" y="-120.2" font-family="Helvetica,sans-Serif" font-size="11.00" fill="#e6edf3">load_jobs / search_jobs / to_brief</text>
<text text-anchor="middle" x="999" y="-108.2" font-family="Helvetica,sans-Serif" font-size="11.00" fill="#e6edf3">NO LLM</text>
</g>
<!-- qj&#45;&gt;data -->
<g id="edge12" class="edge">
<title>qj&#45;&gt;data</title>
<path fill="none" stroke="#8b949e" d="M858.36,-144.73C870.98,-142.77 886.02,-140.43 901.47,-138.02"/>
<polygon fill="#8b949e" stroke="#8b949e" points="902.32,-141.43 911.67,-136.44 901.25,-134.51 902.32,-141.43"/>
</g>
<!-- gj&#45;&gt;data -->
<g id="edge13" class="edge">
<title>gj&#45;&gt;data</title>
<path fill="none" stroke="#8b949e" d="M850.85,-100.1C864.9,-102.29 883.14,-105.13 901.97,-108.06"/>
<polygon fill="#8b949e" stroke="#8b949e" points="901.43,-111.51 911.85,-109.59 902.51,-104.6 901.43,-111.51"/>
</g>
<!-- internet -->
<g id="node13" class="node">
<title>internet</title>
<ellipse fill="#373e47" stroke="#30363d" stroke-width="1.2" cx="999" cy="-38" rx="27" ry="18"/>
<text text-anchor="middle" x="999" y="-35.2" font-family="Helvetica,sans-Serif" font-size="11.00" fill="#e6edf3">Web</text>
</g>
<!-- web&#45;&gt;internet -->
<g id="edge15" class="edge">
<title>web&#45;&gt;internet</title>
<path fill="none" stroke="#8b949e" d="M885.38,-38C910.76,-38 939.38,-38 961.42,-38"/>
<polygon fill="#8b949e" stroke="#8b949e" points="885.15,-34.5 875.15,-38 885.15,-41.5 885.15,-34.5"/>
<polygon fill="#8b949e" stroke="#8b949e" points="961.67,-41.5 971.67,-38 961.67,-34.5 961.67,-41.5"/>
</g>
<!-- corpus -->
<g id="node12" class="node">
<title>corpus</title>
<path fill="#054d2e" stroke="#30363d" stroke-width="1.2" d="M1217,-141C1217,-143.21 1195.93,-145 1170,-145 1144.07,-145 1123,-143.21 1123,-141 1123,-141 1123,-105 1123,-105 1123,-102.79 1144.07,-101 1170,-101 1195.93,-101 1217,-102.79 1217,-105 1217,-105 1217,-141 1217,-141"/>
<path fill="none" stroke="#30363d" stroke-width="1.2" d="M1217,-141C1217,-138.79 1195.93,-137 1170,-137 1144.07,-137 1123,-138.79 1123,-141"/>
<text text-anchor="middle" x="1170" y="-126.2" font-family="Helvetica,sans-Serif" font-size="11.00" fill="#e6edf3">Jobs corpus</text>
<text text-anchor="middle" x="1170" y="-114.2" font-family="Helvetica,sans-Serif" font-size="11.00" fill="#e6edf3">JSONL | SQLite</text>
</g>
<!-- data&#45;&gt;corpus -->
<g id="edge14" class="edge">
<title>data&#45;&gt;corpus</title>
<path fill="none" stroke="#8b949e" d="M1096.7,-123C1102.05,-123 1107.33,-123 1112.45,-123"/>
<polygon fill="#8b949e" stroke="#8b949e" points="1096.48,-119.5 1086.48,-123 1096.48,-126.5 1096.48,-119.5"/>
<polygon fill="#8b949e" stroke="#8b949e" points="1112.73,-126.5 1122.73,-123 1112.73,-119.5 1112.73,-126.5"/>
</g>
</g>
</svg>
