<?xml version="1.0" encoding="UTF-8" standalone="no"?>
<!DOCTYPE svg PUBLIC "-//W3C//DTD SVG 1.1//EN"
 "http://www.w3.org/Graphics/SVG/1.1/DTD/svg11.dtd">
<!-- Generated by graphviz version 2.43.0 (0)
 -->
<!-- Title: future_directions Pages: 1 -->
<svg width="361pt" height="612pt"
 viewBox="0.00 0.00 361.00 612.00" xmlns="http://www.w3.org/2000/svg" xmlns:xlink="http://www.w3.org/1999/xlink">
<g id="graph0" class="graph" transform="scale(1 1) rotate(0) translate(4 608)">
<title>future_directions</title>
<polygon fill="#0d1117" stroke="transparent" points="-4,4 -4,-608 357,-608 357,4 -4,4"/>
<text text-anchor="middle" x="176.5" y="-588.8" font-family="Helvetica,sans-Serif" font-size="14.00" fill="#c9d1d9">Future directions</text>
<g id="clust1" class="cluster">
<title>cluster_quality</title>
<path fill="#0d1117" stroke="#30363d" d="M199.5,-390C199.5,-390 325.5,-390 325.5,-390 331.5,-390 337.5,-396 337.5,-402 337.5,-402 337.5,-561 337.5,-561 337.5,-567 331.5,-573 325.5,-573 325.5,-573 199.5,-573 199.5,-573 193.5,-573 187.5,-567 187.5,-561 187.5,-561 187.5,-402 187.5,-402 187.5,-396 193.5,-390 199.5,-390"/>
<text text-anchor="middle" x="262.5" y="-557.8" font-family="Helvetica,sans-Serif" font-size="14.00" fill="#58a6ff">Reliability</text>
</g>
<g id="clust2" class="cluster">
<title>cluster_features</title>
<path fill="#0d1117" stroke="#30363d" d="M192,-199C192,-199 333,-199 333,-199 339,-199 345,-205 345,-211 345,-211 345,-370 345,-370 345,-376 339,-382 333,-382 333,-382 192,-382 192,-382 186,-382 180,-376 180,-370 180,-370 180,-211 180,-211 180,-205 186,-199 192,-199"/>
<text text-anchor="middle" x="262.5" y="-366.8" font-family="Helvetica,sans-Serif" font-size="14.00" fill="#58a6ff">Features</text>
</g>
<g id="clust3" class="cluster">
<title>cluster_deploy</title>
<path fill="#0d1117" stroke="#30363d" d="M196,-8C196,-8 329,-8 329,-8 335,-8 341,-14 341,-20 341,-20 341,-179 341,-179 341,-185 335,-191 329,-191 329,-191 196,-191 196,-191 190,-191 184,-185 184,-179 184,-179 184,-20 184,-20 184,-14 190,-8 196,-8"/>
<text text-anchor="middle" x="262.5" y="-175.8" font-family="Helvetica,sans-Serif" font-size="14.00" fill="#58a6ff">Deploy / safety</text>
</g>
<!-- now -->
<g id="node1" class="node">
<title>now</title>
<path fill="#238636" stroke="#30363d" d="M140,-297C140,-297 12,-297 12,-297 6,-297 0,-291 0,-285 0,-285 0,-273 0,-273 0,-267 6,-261 12,-261 12,-261 140,-261 140,-261 146,-261 152,-267 152,-273 152,-273 152,-285 152,-285 152,-291 146,-297 140,-297"/>
<text text-anchor="middle" x="76" y="-282" font-family="Helvetica,sans-Serif" font-size="10.00" fill="#e6edf3">smol&#45;jobscout v0.1</text>
<text text-anchor="middle" x="76" y="-271" font-family="Helvetica,sans-Serif" font-size="10.00" fill="#e6edf3">local CodeAgent + tools + eval</text>
</g>
<!-- n1 -->
<g id="node2" class="node">
<title>n1</title>
<path fill="#0969da" stroke="#30363d" d="M313,-542C313,-542 212,-542 212,-542 206,-542 200,-536 200,-530 200,-530 200,-518 200,-518 200,-512 206,-506 212,-506 212,-506 313,-506 313,-506 319,-506 325,-512 325,-518 325,-518 325,-530 325,-530 325,-536 319,-542 313,-542"/>
<text text-anchor="middle" x="262.5" y="-527" font-family="Helvetica,sans-Serif" font-size="10.00" fill="#e6edf3">Constrain answers:</text>
<text text-anchor="middle" x="262.5" y="-516" font-family="Helvetica,sans-Serif" font-size="10.00" fill="#e6edf3">structured/JSON outputs</text>
</g>
<!-- now&#45;&gt;n1 -->
<g id="edge1" class="edge">
<title>now&#45;&gt;n1</title>
<path fill="none" stroke="#8b949e" d="M80.5,-297.14C89.44,-338.64 117,-441.23 180,-497 183.36,-499.97 187.05,-502.62 190.95,-504.97"/>
<polygon fill="#8b949e" stroke="#8b949e" points="189.31,-508.06 199.78,-509.68 192.6,-501.88 189.31,-508.06"/>
</g>
<!-- n2 -->
<g id="node3" class="node">
<title>n2</title>
<path fill="#0969da" stroke="#30363d" d="M317.5,-488C317.5,-488 207.5,-488 207.5,-488 201.5,-488 195.5,-482 195.5,-476 195.5,-476 195.5,-464 195.5,-464 195.5,-458 201.5,-452 207.5,-452 207.5,-452 317.5,-452 317.5,-452 323.5,-452 329.5,-458 329.5,-464 329.5,-464 329.5,-476 329.5,-476 329.5,-482 323.5,-488 317.5,-488"/>
<text text-anchor="middle" x="262.5" y="-473" font-family="Helvetica,sans-Serif" font-size="10.00" fill="#e6edf3">Toggle web tools per&#45;query</text>
<text text-anchor="middle" x="262.5" y="-462" font-family="Helvetica,sans-Serif" font-size="10.00" fill="#e6edf3">(stop salary drift)</text>
</g>
<!-- now&#45;&gt;n2 -->
<g id="edge2" class="edge">
<title>now&#45;&gt;n2</title>
<path fill="none" stroke="#8b949e" d="M83.57,-297.16C96.66,-330.83 129.2,-403.17 180,-443 182.05,-444.61 184.21,-446.13 186.44,-447.55"/>
<polygon fill="#8b949e" stroke="#8b949e" points="184.94,-450.73 195.37,-452.63 188.4,-444.64 184.94,-450.73"/>
</g>
<!-- n3 -->
<g id="node4" class="node">
<title>n3</title>
<path fill="#0969da" stroke="#30363d" d="M316,-434C316,-434 209,-434 209,-434 203,-434 197,-428 197,-422 197,-422 197,-410 197,-410 197,-404 203,-398 209,-398 209,-398 316,-398 316,-398 322,-398 328,-404 328,-410 328,-410 328,-422 328,-422 328,-428 322,-434 316,-434"/>
<text text-anchor="middle" x="262.5" y="-419" font-family="Helvetica,sans-Serif" font-size="10.00" fill="#e6edf3">Eval gate in CI</text>
<text text-anchor="middle" x="262.5" y="-408" font-family="Helvetica,sans-Serif" font-size="10.00" fill="#e6edf3">(track pass&#45;rate over time)</text>
</g>
<!-- now&#45;&gt;n3 -->
<g id="edge3" class="edge">
<title>now&#45;&gt;n3</title>
<path fill="none" stroke="#8b949e" d="M90.37,-297.35C108.35,-320.85 142.44,-361.47 180,-386 184.23,-388.76 188.75,-391.32 193.41,-393.67"/>
<polygon fill="#8b949e" stroke="#8b949e" points="191.97,-396.86 202.51,-397.95 194.95,-390.52 191.97,-396.86"/>
</g>
<!-- n4 -->
<g id="node5" class="node">
<title>n4</title>
<path fill="#8957e5" stroke="#30363d" d="M314.5,-351C314.5,-351 210.5,-351 210.5,-351 204.5,-351 198.5,-345 198.5,-339 198.5,-339 198.5,-327 198.5,-327 198.5,-321 204.5,-315 210.5,-315 210.5,-315 314.5,-315 314.5,-315 320.5,-315 326.5,-321 326.5,-327 326.5,-327 326.5,-339 326.5,-339 326.5,-345 320.5,-351 314.5,-351"/>
<text text-anchor="middle" x="262.5" y="-336" font-family="Helvetica,sans-Serif" font-size="10.00" fill="#e6edf3">fit_score(job_id, profile)</text>
<text text-anchor="middle" x="262.5" y="-325" font-family="Helvetica,sans-Serif" font-size="10.00" fill="#e6edf3">score vs candidate profile</text>
</g>
<!-- now&#45;&gt;n4 -->
<g id="edge4" class="edge">
<title>now&#45;&gt;n4</title>
<path fill="none" stroke="#8b949e" d="M138.69,-297.06C155.16,-301.87 173.08,-307.12 190.02,-312.08"/>
<polygon fill="#8b949e" stroke="#8b949e" points="189.29,-315.51 199.87,-314.96 191.25,-308.79 189.29,-315.51"/>
</g>
<!-- n5 -->
<g id="node6" class="node">
<title>n5</title>
<path fill="#8957e5" stroke="#30363d" d="M325,-297C325,-297 200,-297 200,-297 194,-297 188,-291 188,-285 188,-285 188,-273 188,-273 188,-267 194,-261 200,-261 200,-261 325,-261 325,-261 331,-261 337,-267 337,-273 337,-273 337,-285 337,-285 337,-291 331,-297 325,-297"/>
<text text-anchor="middle" x="262.5" y="-282" font-family="Helvetica,sans-Serif" font-size="10.00" fill="#e6edf3">Multi&#45;agent: manager +</text>
<text text-anchor="middle" x="262.5" y="-271" font-family="Helvetica,sans-Serif" font-size="10.00" fill="#e6edf3">web_search_agent enrichment</text>
</g>
<!-- now&#45;&gt;n5 -->
<g id="edge5" class="edge">
<title>now&#45;&gt;n5</title>
<path fill="none" stroke="#8b949e" d="M152.04,-279C160.41,-279 168.98,-279 177.45,-279"/>
<polygon fill="#8b949e" stroke="#8b949e" points="177.72,-282.5 187.72,-279 177.72,-275.5 177.72,-282.5"/>
</g>
<!-- n6 -->
<g id="node7" class="node">
<title>n6</title>
<path fill="#8957e5" stroke="#30363d" d="M307,-243C307,-243 218,-243 218,-243 212,-243 206,-237 206,-231 206,-231 206,-219 206,-219 206,-213 212,-207 218,-207 218,-207 307,-207 307,-207 313,-207 319,-213 319,-219 319,-219 319,-231 319,-231 319,-237 313,-243 307,-243"/>
<text text-anchor="middle" x="262.5" y="-228" font-family="Helvetica,sans-Serif" font-size="10.00" fill="#e6edf3">SQLite&#45;backed corpus</text>
<text text-anchor="middle" x="262.5" y="-217" font-family="Helvetica,sans-Serif" font-size="10.00" fill="#e6edf3">+ FTS for scale</text>
</g>
<!-- now&#45;&gt;n6 -->
<g id="edge6" class="edge">
<title>now&#45;&gt;n6</title>
<path fill="none" stroke="#8b949e" d="M138.69,-260.94C157.16,-255.54 177.47,-249.6 196.16,-244.12"/>
<polygon fill="#8b949e" stroke="#8b949e" points="197.15,-247.48 205.77,-241.31 195.19,-240.76 197.15,-247.48"/>
</g>
<!-- n7 -->
<g id="node8" class="node">
<title>n7</title>
<path fill="#9e6a03" stroke="#30363d" d="M321,-160C321,-160 204,-160 204,-160 198,-160 192,-154 192,-148 192,-148 192,-136 192,-136 192,-130 198,-124 204,-124 204,-124 321,-124 321,-124 327,-124 333,-130 333,-136 333,-136 333,-148 333,-148 333,-154 327,-160 321,-160"/>
<text text-anchor="middle" x="262.5" y="-145" font-family="Helvetica,sans-Serif" font-size="10.00" fill="#e6edf3">Sandboxed executor</text>
<text text-anchor="middle" x="262.5" y="-134" font-family="Helvetica,sans-Serif" font-size="10.00" fill="#e6edf3">(Docker/E2B) for shared use</text>
</g>
<!-- now&#45;&gt;n7 -->
<g id="edge7" class="edge">
<title>now&#45;&gt;n7</title>
<path fill="none" stroke="#8b949e" d="M97.78,-260.94C118.22,-243.45 150.55,-216.49 180,-195 193.76,-184.96 209.33,-174.6 223.15,-165.74"/>
<polygon fill="#8b949e" stroke="#8b949e" points="225.38,-168.46 231.94,-160.14 221.63,-162.56 225.38,-168.46"/>
</g>
<!-- n8 -->
<g id="node9" class="node">
<title>n8</title>
<path fill="#9e6a03" stroke="#30363d" d="M309,-106C309,-106 216,-106 216,-106 210,-106 204,-100 204,-94 204,-94 204,-82 204,-82 204,-76 210,-70 216,-70 216,-70 309,-70 309,-70 315,-70 321,-76 321,-82 321,-82 321,-94 321,-94 321,-100 315,-106 309,-106"/>
<text text-anchor="middle" x="262.5" y="-91" font-family="Helvetica,sans-Serif" font-size="10.00" fill="#e6edf3">Prometheus dashboard</text>
<text text-anchor="middle" x="262.5" y="-80" font-family="Helvetica,sans-Serif" font-size="10.00" fill="#e6edf3">(reuse obs.py metrics)</text>
</g>
<!-- now&#45;&gt;n8 -->
<g id="edge8" class="edge">
<title>now&#45;&gt;n8</title>
<path fill="none" stroke="#8b949e" d="M83.57,-260.84C96.66,-227.17 129.2,-154.83 180,-115 184.4,-111.55 189.26,-108.53 194.35,-105.89"/>
<polygon fill="#8b949e" stroke="#8b949e" points="196.12,-108.93 203.71,-101.54 193.17,-102.58 196.12,-108.93"/>
</g>
<!-- n9 -->
<g id="node10" class="node">
<title>n9</title>
<path fill="#9e6a03" stroke="#30363d" d="M306,-52C306,-52 219,-52 219,-52 213,-52 207,-46 207,-40 207,-40 207,-28 207,-28 207,-22 213,-16 219,-16 219,-16 306,-16 306,-16 312,-16 318,-22 318,-28 318,-28 318,-40 318,-40 318,-46 312,-52 306,-52"/>
<text text-anchor="middle" x="262.5" y="-37" font-family="Helvetica,sans-Serif" font-size="10.00" fill="#e6edf3">Notebook / write&#45;up</text>
<text text-anchor="middle" x="262.5" y="-26" font-family="Helvetica,sans-Serif" font-size="10.00" fill="#e6edf3">linked from README</text>
</g>
<!-- now&#45;&gt;n9 -->
<g id="edge9" class="edge">
<title>now&#45;&gt;n9</title>
<path fill="none" stroke="#8b949e" d="M80.5,-260.86C89.44,-219.36 117,-116.77 180,-61 185.17,-56.42 191.15,-52.61 197.46,-49.45"/>
<polygon fill="#8b949e" stroke="#8b949e" points="199.18,-52.52 206.9,-45.26 196.34,-46.12 199.18,-52.52"/>
</g>
</g>
</svg>
