<?xml version="1.0" encoding="UTF-8" standalone="no"?>
<!DOCTYPE svg PUBLIC "-//W3C//DTD SVG 1.1//EN"
 "http://www.w3.org/Graphics/SVG/1.1/DTD/svg11.dtd">
<!-- Generated by graphviz version 2.43.0 (0)
 -->
<!-- Title: how_it_works Pages: 1 -->
<svg width="583pt" height="595pt"
 viewBox="0.00 0.00 583.00 595.25" xmlns="http://www.w3.org/2000/svg" xmlns:xlink="http://www.w3.org/1999/xlink">
<g id="graph0" class="graph" transform="scale(1 1) rotate(0) translate(4 591.25)">
<title>how_it_works</title>
<polygon fill="#0d1117" stroke="transparent" points="-4,4 -4,-591.25 579,-591.25 579,4 -4,4"/>
<text text-anchor="middle" x="287.5" y="-572.05" font-family="Helvetica,sans-Serif" font-size="14.00" fill="#c9d1d9">How it works — one query, step by step</text>
<!-- q -->
<g id="node1" class="node">
<title>q</title>
<polygon fill="#1f6feb" stroke="#30363d" points="328,-564.25 131,-564.25 131,-528.25 334,-528.25 334,-558.25 328,-564.25"/>
<polyline fill="none" stroke="#30363d" points="328,-564.25 328,-558.25 "/>
<polyline fill="none" stroke="#30363d" points="334,-558.25 328,-558.25 "/>
<text text-anchor="middle" x="232.5" y="-543.45" font-family="Helvetica,sans-Serif" font-size="11.00" fill="#e6edf3">&quot;How many postings mention Python?&quot;</text>
</g>
<!-- plan -->
<g id="node2" class="node">
<title>plan</title>
<path fill="#8957e5" stroke="#30363d" d="M279.5,-491.25C279.5,-491.25 185.5,-491.25 185.5,-491.25 179.5,-491.25 173.5,-485.25 173.5,-479.25 173.5,-479.25 173.5,-459.25 173.5,-459.25 173.5,-453.25 179.5,-447.25 185.5,-447.25 185.5,-447.25 279.5,-447.25 279.5,-447.25 285.5,-447.25 291.5,-453.25 291.5,-459.25 291.5,-459.25 291.5,-479.25 291.5,-479.25 291.5,-485.25 285.5,-491.25 279.5,-491.25"/>
<text text-anchor="middle" x="232.5" y="-478.45" font-family="Helvetica,sans-Serif" font-size="11.00" fill="#e6edf3">1. Initial plan</text>
<text text-anchor="middle" x="232.5" y="-466.45" font-family="Helvetica,sans-Serif" font-size="11.00" fill="#e6edf3">(planning_interval=3)</text>
<text text-anchor="middle" x="232.5" y="-454.45" font-family="Helvetica,sans-Serif" font-size="11.00" fill="#e6edf3">facts + step plan</text>
</g>
<!-- q&#45;&gt;plan -->
<g id="edge1" class="edge">
<title>q&#45;&gt;plan</title>
<path fill="none" stroke="#8b949e" d="M232.5,-528.24C232.5,-520.41 232.5,-510.86 232.5,-501.79"/>
<polygon fill="#8b949e" stroke="#8b949e" points="236,-501.5 232.5,-491.5 229,-501.5 236,-501.5"/>
</g>
<!-- step -->
<g id="node3" class="node">
<title>step</title>
<path fill="#6e40c9" stroke="#30363d" d="M323.5,-410.25C323.5,-410.25 141.5,-410.25 141.5,-410.25 135.5,-410.25 129.5,-404.25 129.5,-398.25 129.5,-398.25 129.5,-386.25 129.5,-386.25 129.5,-380.25 135.5,-374.25 141.5,-374.25 141.5,-374.25 323.5,-374.25 323.5,-374.25 329.5,-374.25 335.5,-380.25 335.5,-386.25 335.5,-386.25 335.5,-398.25 335.5,-398.25 335.5,-404.25 329.5,-410.25 323.5,-410.25"/>
<text text-anchor="middle" x="232.5" y="-395.45" font-family="Helvetica,sans-Serif" font-size="11.00" fill="#e6edf3">2. Step: model emits Python</text>
<text text-anchor="middle" x="232.5" y="-383.45" font-family="Helvetica,sans-Serif" font-size="11.00" fill="#e6edf3">query_jobs(keyword=&#39;Python&#39;, limit=25)</text>
</g>
<!-- plan&#45;&gt;step -->
<g id="edge2" class="edge">
<title>plan&#45;&gt;step</title>
<path fill="none" stroke="#8b949e" d="M232.5,-446.96C232.5,-438.71 232.5,-429.16 232.5,-420.43"/>
<polygon fill="#8b949e" stroke="#8b949e" points="236,-420.31 232.5,-410.31 229,-420.31 236,-420.31"/>
</g>
<!-- run -->
<g id="node4" class="node">
<title>run</title>
<path fill="#6e40c9" stroke="#30363d" d="M245,-337.25C245,-337.25 102,-337.25 102,-337.25 96,-337.25 90,-331.25 90,-325.25 90,-325.25 90,-313.25 90,-313.25 90,-307.25 96,-301.25 102,-301.25 102,-301.25 245,-301.25 245,-301.25 251,-301.25 257,-307.25 257,-313.25 257,-313.25 257,-325.25 257,-325.25 257,-331.25 251,-337.25 245,-337.25"/>
<text text-anchor="middle" x="173.5" y="-316.45" font-family="Helvetica,sans-Serif" font-size="11.00" fill="#e6edf3">3. Local executor runs the code</text>
</g>
<!-- step&#45;&gt;run -->
<g id="edge3" class="edge">
<title>step&#45;&gt;run</title>
<path fill="none" stroke="#8b949e" d="M218.22,-374.07C210.97,-365.35 202.04,-354.6 194.06,-345"/>
<polygon fill="#8b949e" stroke="#8b949e" points="196.73,-342.74 187.65,-337.28 191.35,-347.21 196.73,-342.74"/>
</g>
<!-- tool -->
<g id="node5" class="node">
<title>tool</title>
<path fill="#0969da" stroke="#30363d" d="M170,-259.63C170,-259.63 15,-259.63 15,-259.63 9,-259.63 3,-253.63 3,-247.63 3,-247.63 3,-235.63 3,-235.63 3,-229.63 9,-223.63 15,-223.63 15,-223.63 170,-223.63 170,-223.63 176,-223.63 182,-229.63 182,-235.63 182,-235.63 182,-247.63 182,-247.63 182,-253.63 176,-259.63 170,-259.63"/>
<text text-anchor="middle" x="92.5" y="-244.83" font-family="Helvetica,sans-Serif" font-size="11.00" fill="#e6edf3">4. query_jobs &#45;&gt; data.search_jobs</text>
<text text-anchor="middle" x="92.5" y="-232.83" font-family="Helvetica,sans-Serif" font-size="11.00" fill="#e6edf3">returns &#39;Found 10 ... (count=10)&#39;</text>
</g>
<!-- run&#45;&gt;tool -->
<g id="edge4" class="edge">
<title>run&#45;&gt;tool</title>
<path fill="none" stroke="#8b949e" d="M155.12,-301.09C144.25,-290.94 130.3,-277.92 118.33,-266.75"/>
<polygon fill="#8b949e" stroke="#8b949e" points="120.51,-263.99 110.81,-259.72 115.73,-269.1 120.51,-263.99"/>
</g>
<!-- loop -->
<g id="node9" class="node">
<title>loop</title>
<ellipse fill="#9e6a03" stroke="#30363d" cx="292.5" cy="-241.63" rx="92.76" ry="22.76"/>
<text text-anchor="middle" x="292.5" y="-244.83" font-family="Helvetica,sans-Serif" font-size="11.00" fill="#0d1117">loop up to max_steps=8</text>
<text text-anchor="middle" x="292.5" y="-232.83" font-family="Helvetica,sans-Serif" font-size="11.00" fill="#0d1117">until final_answer</text>
</g>
<!-- run&#45;&gt;loop -->
<g id="edge8" class="edge">
<title>run&#45;&gt;loop</title>
<path fill="none" stroke="#8b949e" stroke-dasharray="5,2" d="M200.5,-301.09C218.33,-289.76 241.78,-274.86 260.54,-262.94"/>
</g>
<!-- read -->
<g id="node6" class="node">
<title>read</title>
<path fill="#1a7f37" stroke="#30363d" d="M173,-182C173,-182 12,-182 12,-182 6,-182 0,-176 0,-170 0,-170 0,-158 0,-158 0,-152 6,-146 12,-146 12,-146 173,-146 173,-146 179,-146 185,-152 185,-158 185,-158 185,-170 185,-170 185,-176 179,-182 173,-182"/>
<text text-anchor="middle" x="92.5" y="-167.2" font-family="Helvetica,sans-Serif" font-size="11.00" fill="#e6edf3">5. Model reads count=10</text>
<text text-anchor="middle" x="92.5" y="-155.2" font-family="Helvetica,sans-Serif" font-size="11.00" fill="#e6edf3">(NOT len(string) &#45;&gt; would be 2372)</text>
</g>
<!-- tool&#45;&gt;read -->
<g id="edge5" class="edge">
<title>tool&#45;&gt;read</title>
<path fill="none" stroke="#8b949e" d="M92.5,-223.47C92.5,-214.28 92.5,-202.75 92.5,-192.36"/>
<polygon fill="#8b949e" stroke="#8b949e" points="96,-192.09 92.5,-182.09 89,-192.09 96,-192.09"/>
</g>
<!-- fin -->
<g id="node7" class="node">
<title>fin</title>
<path fill="#238636" stroke="#30363d" d="M137,-109C137,-109 48,-109 48,-109 42,-109 36,-103 36,-97 36,-97 36,-85 36,-85 36,-79 42,-73 48,-73 48,-73 137,-73 137,-73 143,-73 149,-79 149,-85 149,-85 149,-97 149,-97 149,-103 143,-109 137,-109"/>
<text text-anchor="middle" x="92.5" y="-94.2" font-family="Helvetica,sans-Serif" font-size="11.00" fill="#e6edf3">6. final_answer(10)</text>
<text text-anchor="middle" x="92.5" y="-82.2" font-family="Helvetica,sans-Serif" font-size="11.00" fill="#e6edf3">(type preserved: int)</text>
</g>
<!-- read&#45;&gt;fin -->
<g id="edge6" class="edge">
<title>read&#45;&gt;fin</title>
<path fill="none" stroke="#8b949e" d="M92.5,-145.81C92.5,-137.79 92.5,-128.05 92.5,-119.07"/>
<polygon fill="#8b949e" stroke="#8b949e" points="96,-119.03 92.5,-109.03 89,-119.03 96,-119.03"/>
</g>
<!-- out -->
<g id="node8" class="node">
<title>out</title>
<polygon fill="#238636" stroke="#30363d" points="135.5,-36 43.5,-36 43.5,0 141.5,0 141.5,-30 135.5,-36"/>
<polyline fill="none" stroke="#30363d" points="135.5,-36 135.5,-30 "/>
<polyline fill="none" stroke="#30363d" points="141.5,-30 135.5,-30 "/>
<text text-anchor="middle" x="92.5" y="-21.2" font-family="Helvetica,sans-Serif" font-size="11.00" fill="#e6edf3">stdout: 10</text>
<text text-anchor="middle" x="92.5" y="-9.2" font-family="Helvetica,sans-Serif" font-size="11.00" fill="#e6edf3">(traces &#45;&gt; stderr)</text>
</g>
<!-- fin&#45;&gt;out -->
<g id="edge7" class="edge">
<title>fin&#45;&gt;out</title>
<path fill="none" stroke="#8b949e" d="M92.5,-72.81C92.5,-64.79 92.5,-55.05 92.5,-46.07"/>
<polygon fill="#8b949e" stroke="#8b949e" points="96,-46.03 92.5,-36.03 89,-46.03 96,-46.03"/>
</g>
<!-- loop&#45;&gt;step -->
<g id="edge9" class="edge">
<title>loop&#45;&gt;step</title>
<path fill="none" stroke="#8b949e" stroke-dasharray="5,2" d="M288.09,-264.25C283.69,-283.81 276.07,-313.16 265.5,-337.25 261.31,-346.81 255.68,-356.71 250.27,-365.39"/>
<polygon fill="#8b949e" stroke="#8b949e" points="247.24,-363.61 244.76,-373.91 253.13,-367.41 247.24,-363.61"/>
<text text-anchor="middle" x="300" y="-317.05" font-family="Helvetica,sans-Serif" font-size="9.00" fill="#8b949e">if not done</text>
</g>
<!-- note -->
<g id="node10" class="node">
<title>note</title>
<polygon fill="#161b22" stroke="#30363d" stroke-dasharray="5,2" points="575,-487.25 310,-487.25 310,-451.25 575,-451.25 575,-487.25"/>
<text text-anchor="middle" x="442.5" y="-472.45" font-family="Helvetica,sans-Serif" font-size="11.00" fill="#f85149">num_ctx=8192 (Ollama default 2048 breaks agents)</text>
<text text-anchor="middle" x="442.5" y="-460.45" font-family="Helvetica,sans-Serif" font-size="11.00" fill="#f85149">ollama_chat/ prefix for correct roles</text>
</g>
</g>
</svg>
