<?xml version="1.0" encoding="UTF-8" standalone="no"?>
<!DOCTYPE svg PUBLIC "-//W3C//DTD SVG 1.1//EN"
 "http://www.w3.org/Graphics/SVG/1.1/DTD/svg11.dtd">
<!-- Generated by graphviz version 2.43.0 (0)
 -->
<!-- Title: howto Pages: 1 -->
<svg width="497pt" height="519pt"
 viewBox="0.00 0.00 496.50 519.00" xmlns="http://www.w3.org/2000/svg" xmlns:xlink="http://www.w3.org/1999/xlink">
<g id="graph0" class="graph" transform="scale(1 1) rotate(0) translate(4 515)">
<title>howto</title>
<polygon fill="#0d1117" stroke="transparent" points="-4,4 -4,-515 492.5,-515 492.5,4 -4,4"/>
<text text-anchor="middle" x="244.25" y="-495.8" font-family="Helvetica,sans-Serif" font-size="14.00" fill="#c9d1d9">HOWTO — setup to first answer (and your own data)</text>
<!-- py -->
<g id="node1" class="node">
<title>py</title>
<path fill="#9e6a03" stroke="#30363d" d="M196.5,-488C196.5,-488 90.5,-488 90.5,-488 84.5,-488 78.5,-482 78.5,-476 78.5,-476 78.5,-459 78.5,-459 78.5,-453 84.5,-447 90.5,-447 90.5,-447 196.5,-447 196.5,-447 202.5,-447 208.5,-453 208.5,-459 208.5,-459 208.5,-476 208.5,-476 208.5,-482 202.5,-488 196.5,-488"/>
<text text-anchor="middle" x="143.5" y="-476" font-family="Helvetica,sans-Serif" font-size="10.00" fill="#e6edf3">Python 3.11+</text>
<text text-anchor="middle" x="143.5" y="-465" font-family="Helvetica,sans-Serif" font-size="10.00" fill="#e6edf3">(system 3.10 fails the pin!</text>
<text text-anchor="middle" x="143.5" y="-454" font-family="Helvetica,sans-Serif" font-size="10.00" fill="#e6edf3">use python3.12 &#45;m venv)</text>
</g>
<!-- venv -->
<g id="node2" class="node">
<title>venv</title>
<path fill="#1f6feb" stroke="#30363d" d="M196.5,-410C196.5,-410 90.5,-410 90.5,-410 84.5,-410 78.5,-404 78.5,-398 78.5,-398 78.5,-386 78.5,-386 78.5,-380 84.5,-374 90.5,-374 90.5,-374 196.5,-374 196.5,-374 202.5,-374 208.5,-380 208.5,-386 208.5,-386 208.5,-398 208.5,-398 208.5,-404 202.5,-410 196.5,-410"/>
<text text-anchor="middle" x="143.5" y="-395" font-family="Helvetica,sans-Serif" font-size="10.00" fill="#e6edf3">python3.12 &#45;m venv .venv</text>
<text text-anchor="middle" x="143.5" y="-384" font-family="Helvetica,sans-Serif" font-size="10.00" fill="#e6edf3">source .venv/bin/activate</text>
</g>
<!-- py&#45;&gt;venv -->
<g id="edge1" class="edge">
<title>py&#45;&gt;venv</title>
<path fill="none" stroke="#8b949e" d="M143.5,-446.8C143.5,-438.7 143.5,-429.18 143.5,-420.41"/>
<polygon fill="#8b949e" stroke="#8b949e" points="147,-420.25 143.5,-410.25 140,-420.25 147,-420.25"/>
</g>
<!-- inst -->
<g id="node3" class="node">
<title>inst</title>
<path fill="#1f6feb" stroke="#30363d" d="M188,-337C188,-337 99,-337 99,-337 93,-337 87,-331 87,-325 87,-325 87,-313 87,-313 87,-307 93,-301 99,-301 99,-301 188,-301 188,-301 194,-301 200,-307 200,-313 200,-313 200,-325 200,-325 200,-331 194,-337 188,-337"/>
<text text-anchor="middle" x="143.5" y="-316.5" font-family="Helvetica,sans-Serif" font-size="10.00" fill="#e6edf3">pip install &#45;e &quot;.[dev,ui]&quot;</text>
</g>
<!-- venv&#45;&gt;inst -->
<g id="edge2" class="edge">
<title>venv&#45;&gt;inst</title>
<path fill="none" stroke="#8b949e" d="M143.5,-373.81C143.5,-365.79 143.5,-356.05 143.5,-347.07"/>
<polygon fill="#8b949e" stroke="#8b949e" points="147,-347.03 143.5,-337.03 140,-347.03 147,-347.03"/>
</g>
<!-- oll -->
<g id="node4" class="node">
<title>oll</title>
<path fill="#bb8009" stroke="#30363d" d="M206,-264C206,-264 81,-264 81,-264 75,-264 69,-258 69,-252 69,-252 69,-240 69,-240 69,-234 75,-228 81,-228 81,-228 206,-228 206,-228 212,-228 218,-234 218,-240 218,-240 218,-252 218,-252 218,-258 212,-264 206,-264"/>
<text text-anchor="middle" x="143.5" y="-249" font-family="Helvetica,sans-Serif" font-size="10.00" fill="#e6edf3">Ollama serving :11434</text>
<text text-anchor="middle" x="143.5" y="-238" font-family="Helvetica,sans-Serif" font-size="10.00" fill="#e6edf3">ollama pull qwen2.5&#45;coder:14b</text>
</g>
<!-- inst&#45;&gt;oll -->
<g id="edge3" class="edge">
<title>inst&#45;&gt;oll</title>
<path fill="none" stroke="#8b949e" d="M143.5,-300.81C143.5,-292.79 143.5,-283.05 143.5,-274.07"/>
<polygon fill="#8b949e" stroke="#8b949e" points="147,-274.03 143.5,-264.03 140,-274.03 147,-274.03"/>
</g>
<!-- t1 -->
<g id="node5" class="node">
<title>t1</title>
<path fill="#1a7f37" stroke="#30363d" d="M194.5,-191C194.5,-191 92.5,-191 92.5,-191 86.5,-191 80.5,-185 80.5,-179 80.5,-179 80.5,-167 80.5,-167 80.5,-161 86.5,-155 92.5,-155 92.5,-155 194.5,-155 194.5,-155 200.5,-155 206.5,-161 206.5,-167 206.5,-167 206.5,-179 206.5,-179 206.5,-185 200.5,-191 194.5,-191"/>
<text text-anchor="middle" x="143.5" y="-170.5" font-family="Helvetica,sans-Serif" font-size="10.00" fill="#e6edf3">pytest &#160;(Tier&#45;1, no model)</text>
</g>
<!-- oll&#45;&gt;t1 -->
<g id="edge4" class="edge">
<title>oll&#45;&gt;t1</title>
<path fill="none" stroke="#8b949e" d="M143.5,-227.81C143.5,-219.79 143.5,-210.05 143.5,-201.07"/>
<polygon fill="#8b949e" stroke="#8b949e" points="147,-201.03 143.5,-191.03 140,-201.03 147,-201.03"/>
</g>
<!-- ask -->
<g id="node6" class="node">
<title>ask</title>
<path fill="#238636" stroke="#30363d" d="M274,-109C274,-109 151,-109 151,-109 145,-109 139,-103 139,-97 139,-97 139,-85 139,-85 139,-79 145,-73 151,-73 151,-73 274,-73 274,-73 280,-73 286,-79 286,-85 286,-85 286,-97 286,-97 286,-103 280,-109 274,-109"/>
<text text-anchor="middle" x="212.5" y="-94" font-family="Helvetica,sans-Serif" font-size="10.00" fill="#e6edf3">jobscout &quot;How many postings</text>
<text text-anchor="middle" x="212.5" y="-83" font-family="Helvetica,sans-Serif" font-size="10.00" fill="#e6edf3">mention Python?&quot;</text>
</g>
<!-- t1&#45;&gt;ask -->
<g id="edge5" class="edge">
<title>t1&#45;&gt;ask</title>
<path fill="none" stroke="#8b949e" d="M158.47,-154.64C168.03,-143.56 180.57,-129.02 191.17,-116.74"/>
<polygon fill="#8b949e" stroke="#8b949e" points="193.91,-118.91 197.79,-109.05 188.61,-114.34 193.91,-118.91"/>
</g>
<!-- smoke -->
<g id="node7" class="node">
<title>smoke</title>
<path fill="#143d28" stroke="#30363d" d="M121,-36C121,-36 12,-36 12,-36 6,-36 0,-30 0,-24 0,-24 0,-12 0,-12 0,-6 6,0 12,0 12,0 121,0 121,0 127,0 133,-6 133,-12 133,-12 133,-24 133,-24 133,-30 127,-36 121,-36"/>
<text text-anchor="middle" x="66.5" y="-21" font-family="Helvetica,sans-Serif" font-size="10.00" fill="#e6edf3">pytest &#45;m integration</text>
<text text-anchor="middle" x="66.5" y="-10" font-family="Helvetica,sans-Serif" font-size="10.00" fill="#e6edf3">(needs Ollama; else skips)</text>
</g>
<!-- ask&#45;&gt;smoke -->
<g id="edge6" class="edge">
<title>ask&#45;&gt;smoke</title>
<path fill="none" stroke="#8b949e" stroke-dasharray="5,2" d="M177.53,-72.99C157.54,-63.27 132.28,-50.99 110.9,-40.59"/>
<polygon fill="#8b949e" stroke="#8b949e" points="112.21,-37.34 101.69,-36.11 109.15,-43.63 112.21,-37.34"/>
</g>
<!-- ev -->
<g id="node8" class="node">
<title>ev</title>
<path fill="#143d28" stroke="#30363d" d="M261.5,-36C261.5,-36 163.5,-36 163.5,-36 157.5,-36 151.5,-30 151.5,-24 151.5,-24 151.5,-12 151.5,-12 151.5,-6 157.5,0 163.5,0 163.5,0 261.5,0 261.5,0 267.5,0 273.5,-6 273.5,-12 273.5,-12 273.5,-24 273.5,-24 273.5,-30 267.5,-36 261.5,-36"/>
<text text-anchor="middle" x="212.5" y="-21" font-family="Helvetica,sans-Serif" font-size="10.00" fill="#e6edf3">python scripts/eval.py</text>
<text text-anchor="middle" x="212.5" y="-10" font-family="Helvetica,sans-Serif" font-size="10.00" fill="#e6edf3">&#45;&gt; docs/eval_results.md</text>
</g>
<!-- ask&#45;&gt;ev -->
<g id="edge7" class="edge">
<title>ask&#45;&gt;ev</title>
<path fill="none" stroke="#8b949e" stroke-dasharray="5,2" d="M212.5,-72.81C212.5,-64.79 212.5,-55.05 212.5,-46.07"/>
<polygon fill="#8b949e" stroke="#8b949e" points="216,-46.03 212.5,-36.03 209,-46.03 216,-46.03"/>
</g>
<!-- ui -->
<g id="node9" class="node">
<title>ui</title>
<path fill="#8957e5" stroke="#30363d" d="M375.5,-36C375.5,-36 303.5,-36 303.5,-36 297.5,-36 291.5,-30 291.5,-24 291.5,-24 291.5,-12 291.5,-12 291.5,-6 297.5,0 303.5,0 303.5,0 375.5,0 375.5,0 381.5,0 387.5,-6 387.5,-12 387.5,-12 387.5,-24 387.5,-24 387.5,-30 381.5,-36 375.5,-36"/>
<text text-anchor="middle" x="339.5" y="-15.5" font-family="Helvetica,sans-Serif" font-size="10.00" fill="#e6edf3">make ui &#160;&#45;&gt; &#160;:7860</text>
</g>
<!-- ask&#45;&gt;ui -->
<g id="edge8" class="edge">
<title>ask&#45;&gt;ui</title>
<path fill="none" stroke="#8b949e" stroke-dasharray="5,2" d="M242.92,-72.99C260.07,-63.4 281.69,-51.32 300.13,-41.01"/>
<polygon fill="#8b949e" stroke="#8b949e" points="301.87,-44.05 308.89,-36.11 298.45,-37.94 301.87,-44.05"/>
</g>
<!-- own -->
<g id="node10" class="node">
<title>own</title>
<ellipse fill="#6e40c9" stroke="#30363d" cx="309.5" cy="-319" rx="58.06" ry="18"/>
<text text-anchor="middle" x="309.5" y="-316.5" font-family="Helvetica,sans-Serif" font-size="10.00" fill="#e6edf3">Use your own data</text>
</g>
<!-- cfg -->
<g id="node11" class="node">
<title>cfg</title>
<path fill="#0969da" stroke="#30363d" d="M328.5,-191C328.5,-191 236.5,-191 236.5,-191 230.5,-191 224.5,-185 224.5,-179 224.5,-179 224.5,-167 224.5,-167 224.5,-161 230.5,-155 236.5,-155 236.5,-155 328.5,-155 328.5,-155 334.5,-155 340.5,-161 340.5,-167 340.5,-167 340.5,-179 340.5,-179 340.5,-185 334.5,-191 328.5,-191"/>
<text text-anchor="middle" x="282.5" y="-176" font-family="Helvetica,sans-Serif" font-size="10.00" fill="#e6edf3">edit config.yaml</text>
<text text-anchor="middle" x="282.5" y="-165" font-family="Helvetica,sans-Serif" font-size="10.00" fill="#e6edf3">data.path / data.format</text>
</g>
<!-- own&#45;&gt;cfg -->
<g id="edge9" class="edge">
<title>own&#45;&gt;cfg</title>
<path fill="none" stroke="#8b949e" d="M299.95,-301.08C294.63,-290.72 288.49,-277 285.5,-264 280.75,-243.34 280.19,-219.31 280.72,-201.28"/>
<polygon fill="#8b949e" stroke="#8b949e" points="284.22,-201.31 281.14,-191.17 277.23,-201.01 284.22,-201.31"/>
</g>
<!-- ing -->
<g id="node12" class="node">
<title>ing</title>
<path fill="#0969da" stroke="#30363d" d="M476.5,-264C476.5,-264 306.5,-264 306.5,-264 300.5,-264 294.5,-258 294.5,-252 294.5,-252 294.5,-240 294.5,-240 294.5,-234 300.5,-228 306.5,-228 306.5,-228 476.5,-228 476.5,-228 482.5,-228 488.5,-234 488.5,-240 488.5,-240 488.5,-252 488.5,-252 488.5,-258 482.5,-264 476.5,-264"/>
<text text-anchor="middle" x="391.5" y="-249" font-family="Helvetica,sans-Serif" font-size="10.00" fill="#e6edf3">scripts/ingest_crawler.py</text>
<text text-anchor="middle" x="391.5" y="-238" font-family="Helvetica,sans-Serif" font-size="10.00" fill="#e6edf3">&#45;&#45;input dump.json &#45;&#45;output data/jobs.jsonl</text>
</g>
<!-- own&#45;&gt;ing -->
<g id="edge10" class="edge">
<title>own&#45;&gt;ing</title>
<path fill="none" stroke="#8b949e" d="M328.11,-301.89C338.7,-292.71 352.18,-281.05 363.98,-270.83"/>
<polygon fill="#8b949e" stroke="#8b949e" points="366.55,-273.23 371.82,-264.04 361.97,-267.94 366.55,-273.23"/>
</g>
<!-- cfg&#45;&gt;ask -->
<g id="edge12" class="edge">
<title>cfg&#45;&gt;ask</title>
<path fill="none" stroke="#8b949e" stroke-dasharray="1,5" d="M267.31,-154.64C257.61,-143.56 244.89,-129.02 234.14,-116.74"/>
<polygon fill="#8b949e" stroke="#8b949e" points="236.64,-114.27 227.42,-109.05 231.37,-118.88 236.64,-114.27"/>
<text text-anchor="middle" x="265" y="-129.8" font-family="Helvetica,sans-Serif" font-size="9.00" fill="#8b949e">re&#45;run</text>
</g>
<!-- ing&#45;&gt;cfg -->
<g id="edge11" class="edge">
<title>ing&#45;&gt;cfg</title>
<path fill="none" stroke="#8b949e" d="M365.39,-227.99C350.94,-218.58 332.79,-206.76 317.16,-196.57"/>
<polygon fill="#8b949e" stroke="#8b949e" points="319.06,-193.64 308.77,-191.11 315.24,-199.5 319.06,-193.64"/>
</g>
</g>
</svg>
