<?xml version="1.0" encoding="UTF-8" standalone="no"?>
<!DOCTYPE svg PUBLIC "-//W3C//DTD SVG 1.1//EN"
 "http://www.w3.org/Graphics/SVG/1.1/DTD/svg11.dtd">
<!-- Generated by graphviz version 2.43.0 (0)
 -->
<!-- Title: lessons_learned Pages: 1 -->
<svg width="486pt" height="397pt"
 viewBox="0.00 0.00 486.00 396.50" xmlns="http://www.w3.org/2000/svg" xmlns:xlink="http://www.w3.org/1999/xlink">
<g id="graph0" class="graph" transform="scale(1 1) rotate(0) translate(4 392.5)">
<title>lessons_learned</title>
<polygon fill="#0d1117" stroke="transparent" points="-4,4 -4,-392.5 482,-392.5 482,4 -4,4"/>
<text text-anchor="middle" x="239" y="-373.3" font-family="Helvetica,sans-Serif" font-size="14.00" fill="#c9d1d9">Lessons learned — observed failure &#45;&gt; fix</text>
<!-- f1 -->
<g id="node1" class="node">
<title>f1</title>
<path fill="#5a1e1e" stroke="#f85149" d="M201,-41C201,-41 90,-41 90,-41 84,-41 78,-35 78,-29 78,-29 78,-12 78,-12 78,-6 84,0 90,0 90,0 201,0 201,0 207,0 213,-6 213,-12 213,-12 213,-29 213,-29 213,-35 207,-41 201,-41"/>
<text text-anchor="middle" x="145.5" y="-29" font-family="Helvetica,sans-Serif" font-size="10.00" fill="#e6edf3">len(query_jobs result)</text>
<text text-anchor="middle" x="145.5" y="-18" font-family="Helvetica,sans-Serif" font-size="10.00" fill="#e6edf3">returned 2372</text>
<text text-anchor="middle" x="145.5" y="-7" font-family="Helvetica,sans-Serif" font-size="10.00" fill="#e6edf3">(char count of joined string)</text>
</g>
<!-- x1 -->
<g id="node2" class="node">
<title>x1</title>
<path fill="#143d28" stroke="#3fb950" d="M466,-38.5C466,-38.5 349,-38.5 349,-38.5 343,-38.5 337,-32.5 337,-26.5 337,-26.5 337,-14.5 337,-14.5 337,-8.5 343,-2.5 349,-2.5 349,-2.5 466,-2.5 466,-2.5 472,-2.5 478,-8.5 478,-14.5 478,-14.5 478,-26.5 478,-26.5 478,-32.5 472,-38.5 466,-38.5"/>
<text text-anchor="middle" x="407.5" y="-23.5" font-family="Helvetica,sans-Serif" font-size="10.00" fill="#e6edf3">query_jobs leads output with</text>
<text text-anchor="middle" x="407.5" y="-12.5" font-family="Helvetica,sans-Serif" font-size="10.00" fill="#e6edf3">&#39;... (count=N)&#39; header</text>
</g>
<!-- f1&#45;&gt;x1 -->
<g id="edge1" class="edge">
<title>f1&#45;&gt;x1</title>
<path fill="none" stroke="#8b949e" d="M213.12,-20.5C247.78,-20.5 290.39,-20.5 326.79,-20.5"/>
<polygon fill="#8b949e" stroke="#8b949e" points="326.88,-24 336.88,-20.5 326.88,-17 326.88,-24"/>
<text text-anchor="middle" x="314" y="-23.3" font-family="Helvetica,sans-Serif" font-size="9.00" fill="#8b949e">fix</text>
</g>
<!-- f2 -->
<g id="node3" class="node">
<title>f2</title>
<path fill="#5a1e1e" stroke="#f85149" d="M199,-95.5C199,-95.5 92,-95.5 92,-95.5 86,-95.5 80,-89.5 80,-83.5 80,-83.5 80,-71.5 80,-71.5 80,-65.5 86,-59.5 92,-59.5 92,-59.5 199,-59.5 199,-59.5 205,-59.5 211,-65.5 211,-71.5 211,-71.5 211,-83.5 211,-83.5 211,-89.5 205,-95.5 199,-95.5"/>
<text text-anchor="middle" x="145.5" y="-80.5" font-family="Helvetica,sans-Serif" font-size="10.00" fill="#e6edf3">num_ctx default 2048</text>
<text text-anchor="middle" x="145.5" y="-69.5" font-family="Helvetica,sans-Serif" font-size="10.00" fill="#e6edf3">silently wrecks agent runs</text>
</g>
<!-- x2 -->
<g id="node4" class="node">
<title>x2</title>
<path fill="#143d28" stroke="#3fb950" d="M459.5,-95.5C459.5,-95.5 355.5,-95.5 355.5,-95.5 349.5,-95.5 343.5,-89.5 343.5,-83.5 343.5,-83.5 343.5,-71.5 343.5,-71.5 343.5,-65.5 349.5,-59.5 355.5,-59.5 355.5,-59.5 459.5,-59.5 459.5,-59.5 465.5,-59.5 471.5,-65.5 471.5,-71.5 471.5,-71.5 471.5,-83.5 471.5,-83.5 471.5,-89.5 465.5,-95.5 459.5,-95.5"/>
<text text-anchor="middle" x="407.5" y="-80.5" font-family="Helvetica,sans-Serif" font-size="10.00" fill="#e6edf3">set num_ctx&gt;=8192;</text>
<text text-anchor="middle" x="407.5" y="-69.5" font-family="Helvetica,sans-Serif" font-size="10.00" fill="#e6edf3">config warns when &lt;4096</text>
</g>
<!-- f2&#45;&gt;x2 -->
<g id="edge2" class="edge">
<title>f2&#45;&gt;x2</title>
<path fill="none" stroke="#8b949e" d="M211.1,-77.5C248.1,-77.5 294.66,-77.5 333.05,-77.5"/>
<polygon fill="#8b949e" stroke="#8b949e" points="333.13,-81 343.13,-77.5 333.13,-74 333.13,-81"/>
<text text-anchor="middle" x="314" y="-80.3" font-family="Helvetica,sans-Serif" font-size="9.00" fill="#8b949e">fix</text>
</g>
<!-- f3 -->
<g id="node5" class="node">
<title>f3</title>
<path fill="#5a1e1e" stroke="#f85149" d="M203.5,-149.5C203.5,-149.5 87.5,-149.5 87.5,-149.5 81.5,-149.5 75.5,-143.5 75.5,-137.5 75.5,-137.5 75.5,-125.5 75.5,-125.5 75.5,-119.5 81.5,-113.5 87.5,-113.5 87.5,-113.5 203.5,-113.5 203.5,-113.5 209.5,-113.5 215.5,-119.5 215.5,-125.5 215.5,-125.5 215.5,-137.5 215.5,-137.5 215.5,-143.5 209.5,-149.5 203.5,-149.5"/>
<text text-anchor="middle" x="145.5" y="-134.5" font-family="Helvetica,sans-Serif" font-size="10.00" fill="#e6edf3">vague prompt &#39;use the tools&#39;</text>
<text text-anchor="middle" x="145.5" y="-123.5" font-family="Helvetica,sans-Serif" font-size="10.00" fill="#e6edf3">loops to max_steps</text>
</g>
<!-- x3 -->
<g id="node6" class="node">
<title>x3</title>
<path fill="#143d28" stroke="#3fb950" d="M455,-149.5C455,-149.5 360,-149.5 360,-149.5 354,-149.5 348,-143.5 348,-137.5 348,-137.5 348,-125.5 348,-125.5 348,-119.5 354,-113.5 360,-113.5 360,-113.5 455,-113.5 455,-113.5 461,-113.5 467,-119.5 467,-125.5 467,-125.5 467,-137.5 467,-137.5 467,-143.5 461,-149.5 455,-149.5"/>
<text text-anchor="middle" x="407.5" y="-134.5" font-family="Helvetica,sans-Serif" font-size="10.00" fill="#e6edf3">explicit prompt finalizes</text>
<text text-anchor="middle" x="407.5" y="-123.5" font-family="Helvetica,sans-Serif" font-size="10.00" fill="#e6edf3">in ~2 steps / 8s</text>
</g>
<!-- f3&#45;&gt;x3 -->
<g id="edge3" class="edge">
<title>f3&#45;&gt;x3</title>
<path fill="none" stroke="#8b949e" d="M215.83,-131.5C253.51,-131.5 299.95,-131.5 337.56,-131.5"/>
<polygon fill="#8b949e" stroke="#8b949e" points="337.92,-135 347.92,-131.5 337.92,-128 337.92,-135"/>
<text text-anchor="middle" x="314" y="-134.3" font-family="Helvetica,sans-Serif" font-size="9.00" fill="#8b949e">fix</text>
</g>
<!-- f4 -->
<g id="node7" class="node">
<title>f4</title>
<path fill="#5a1e1e" stroke="#f85149" d="M206,-203.5C206,-203.5 85,-203.5 85,-203.5 79,-203.5 73,-197.5 73,-191.5 73,-191.5 73,-179.5 73,-179.5 73,-173.5 79,-167.5 85,-167.5 85,-167.5 206,-167.5 206,-167.5 212,-167.5 218,-173.5 218,-179.5 218,-179.5 218,-191.5 218,-191.5 218,-197.5 212,-203.5 206,-203.5"/>
<text text-anchor="middle" x="145.5" y="-188.5" font-family="Helvetica,sans-Serif" font-size="10.00" fill="#e6edf3">&#39;rust&#39; matched &#39;tRUSTworthy&#39;</text>
<text text-anchor="middle" x="145.5" y="-177.5" font-family="Helvetica,sans-Serif" font-size="10.00" fill="#e6edf3">(substring false&#45;friend)</text>
</g>
<!-- x4 -->
<g id="node8" class="node">
<title>x4</title>
<path fill="#143d28" stroke="#3fb950" d="M461.5,-203.5C461.5,-203.5 353.5,-203.5 353.5,-203.5 347.5,-203.5 341.5,-197.5 341.5,-191.5 341.5,-191.5 341.5,-179.5 341.5,-179.5 341.5,-173.5 347.5,-167.5 353.5,-167.5 353.5,-167.5 461.5,-167.5 461.5,-167.5 467.5,-167.5 473.5,-173.5 473.5,-179.5 473.5,-179.5 473.5,-191.5 473.5,-191.5 473.5,-197.5 467.5,-203.5 461.5,-203.5"/>
<text text-anchor="middle" x="407.5" y="-188.5" font-family="Helvetica,sans-Serif" font-size="10.00" fill="#e6edf3">word&#45;boundary regex in</text>
<text text-anchor="middle" x="407.5" y="-177.5" font-family="Helvetica,sans-Serif" font-size="10.00" fill="#e6edf3">search_jobs (alnum terms)</text>
</g>
<!-- f4&#45;&gt;x4 -->
<g id="edge4" class="edge">
<title>f4&#45;&gt;x4</title>
<path fill="none" stroke="#8b949e" d="M218.23,-185.5C253.26,-185.5 295.39,-185.5 330.91,-185.5"/>
<polygon fill="#8b949e" stroke="#8b949e" points="331.23,-189 341.23,-185.5 331.23,-182 331.23,-189"/>
<text text-anchor="middle" x="314" y="-188.3" font-family="Helvetica,sans-Serif" font-size="9.00" fill="#8b949e">fix</text>
</g>
<!-- f5 -->
<g id="node9" class="node">
<title>f5</title>
<path fill="#5a1e1e" stroke="#f85149" d="M202.5,-257.5C202.5,-257.5 88.5,-257.5 88.5,-257.5 82.5,-257.5 76.5,-251.5 76.5,-245.5 76.5,-245.5 76.5,-233.5 76.5,-233.5 76.5,-227.5 82.5,-221.5 88.5,-221.5 88.5,-221.5 202.5,-221.5 202.5,-221.5 208.5,-221.5 214.5,-227.5 214.5,-233.5 214.5,-233.5 214.5,-245.5 214.5,-245.5 214.5,-251.5 208.5,-257.5 202.5,-257.5"/>
<text text-anchor="middle" x="145.5" y="-242.5" font-family="Helvetica,sans-Serif" font-size="10.00" fill="#e6edf3">isinstance(answer,str) failed</text>
<text text-anchor="middle" x="145.5" y="-231.5" font-family="Helvetica,sans-Serif" font-size="10.00" fill="#e6edf3">final_answer(10) kept int</text>
</g>
<!-- x5 -->
<g id="node10" class="node">
<title>x5</title>
<path fill="#143d28" stroke="#3fb950" d="M453.5,-257.5C453.5,-257.5 361.5,-257.5 361.5,-257.5 355.5,-257.5 349.5,-251.5 349.5,-245.5 349.5,-245.5 349.5,-233.5 349.5,-233.5 349.5,-227.5 355.5,-221.5 361.5,-221.5 361.5,-221.5 453.5,-221.5 453.5,-221.5 459.5,-221.5 465.5,-227.5 465.5,-233.5 465.5,-233.5 465.5,-245.5 465.5,-245.5 465.5,-251.5 459.5,-257.5 453.5,-257.5"/>
<text text-anchor="middle" x="407.5" y="-242.5" font-family="Helvetica,sans-Serif" font-size="10.00" fill="#e6edf3">coerce: str(answer);</text>
<text text-anchor="middle" x="407.5" y="-231.5" font-family="Helvetica,sans-Serif" font-size="10.00" fill="#e6edf3">CLI print() already safe</text>
</g>
<!-- f5&#45;&gt;x5 -->
<g id="edge5" class="edge">
<title>f5&#45;&gt;x5</title>
<path fill="none" stroke="#8b949e" d="M214.81,-239.5C253.21,-239.5 300.95,-239.5 339.18,-239.5"/>
<polygon fill="#8b949e" stroke="#8b949e" points="339.19,-243 349.19,-239.5 339.19,-236 339.19,-243"/>
<text text-anchor="middle" x="314" y="-242.3" font-family="Helvetica,sans-Serif" font-size="9.00" fill="#8b949e">fix</text>
</g>
<!-- f6 -->
<g id="node11" class="node">
<title>f6</title>
<path fill="#5a1e1e" stroke="#f85149" d="M199.5,-311.5C199.5,-311.5 91.5,-311.5 91.5,-311.5 85.5,-311.5 79.5,-305.5 79.5,-299.5 79.5,-299.5 79.5,-287.5 79.5,-287.5 79.5,-281.5 85.5,-275.5 91.5,-275.5 91.5,-275.5 199.5,-275.5 199.5,-275.5 205.5,-275.5 211.5,-281.5 211.5,-287.5 211.5,-287.5 211.5,-299.5 211.5,-299.5 211.5,-305.5 205.5,-311.5 199.5,-311.5"/>
<text text-anchor="middle" x="145.5" y="-296.5" font-family="Helvetica,sans-Serif" font-size="10.00" fill="#e6edf3">model drifts to WebSearch</text>
<text text-anchor="middle" x="145.5" y="-285.5" font-family="Helvetica,sans-Serif" font-size="10.00" fill="#e6edf3">for a salary in local data</text>
</g>
<!-- x6 -->
<g id="node12" class="node">
<title>x6</title>
<path fill="#143d28" stroke="#3fb950" d="M464.5,-311.5C464.5,-311.5 350.5,-311.5 350.5,-311.5 344.5,-311.5 338.5,-305.5 338.5,-299.5 338.5,-299.5 338.5,-287.5 338.5,-287.5 338.5,-281.5 344.5,-275.5 350.5,-275.5 350.5,-275.5 464.5,-275.5 464.5,-275.5 470.5,-275.5 476.5,-281.5 476.5,-287.5 476.5,-287.5 476.5,-299.5 476.5,-299.5 476.5,-305.5 470.5,-311.5 464.5,-311.5"/>
<text text-anchor="middle" x="407.5" y="-296.5" font-family="Helvetica,sans-Serif" font-size="10.00" fill="#e6edf3">steer prompt to local corpus</text>
<text text-anchor="middle" x="407.5" y="-285.5" font-family="Helvetica,sans-Serif" font-size="10.00" fill="#e6edf3">or disable web tools</text>
</g>
<!-- f6&#45;&gt;x6 -->
<g id="edge6" class="edge">
<title>f6&#45;&gt;x6</title>
<path fill="none" stroke="#8b949e" d="M211.77,-293.5C247.11,-293.5 291.01,-293.5 328.18,-293.5"/>
<polygon fill="#8b949e" stroke="#8b949e" points="328.48,-297 338.48,-293.5 328.48,-290 328.48,-297"/>
<text text-anchor="middle" x="314" y="-296.3" font-family="Helvetica,sans-Serif" font-size="9.00" fill="#8b949e">fix</text>
</g>
<!-- ceiling -->
<g id="node13" class="node">
<title>ceiling</title>
<polygon fill="#161b22" stroke="#30363d" stroke-dasharray="5,2" points="291,-365.5 0,-365.5 0,-329.5 291,-329.5 291,-365.5"/>
<text text-anchor="middle" x="145.5" y="-350.5" font-family="Helvetica,sans-Serif" font-size="10.00" fill="#d29922">Reliability ceiling: 7b &amp; 14b both pass simple count/lookup,</text>
<text text-anchor="middle" x="145.5" y="-339.5" font-family="Helvetica,sans-Serif" font-size="10.00" fill="#d29922">both fail harder filter/format + field&#45;extraction prompts (2/4 eval)</text>
</g>
</g>
</svg>
